# Blender v2.78 (sub 0) OBJ File: 'cubeuv1.blend'
# www.blender.org
mtllib cubeuv1.mtl
o Cube
v 1.000000 -0.303179 -1.000000
v 1.000000 -0.303179 1.000000
v -1.000000 -0.303179 1.000000
v -1.000000 -0.303179 -1.000000
v 1.000000 0.303179 -0.999999
v 0.999999 0.303179 1.000001
v -1.000000 0.303179 1.000000
v -1.000000 0.303179 -1.000000
vt 0.5000 0.5000
vt 0.2500 0.5000
vt 0.2500 0.2500
vt 0.5000 0.2500
vt 0.5000 0.7500
vt 0.5000 0.9999
vt 0.2500 0.9999
vt 0.2500 0.7500
vt 0.7500 0.5000
vt 0.7500 0.2500
vt 0.5000 0.0001
vt 0.2500 0.0001
vt 0.0001 0.2500
vt 0.0001 0.5000
vn 0.0000 1.0000 -0.0000
vn 0.0000 -1.0000 0.0000
vn 1.0000 0.0000 0.0000
vn -0.0000 -0.0000 1.0000
vn -1.0000 -0.0000 -0.0000
vn 0.0000 0.0000 -1.0000
usemtl Material.001
s off
f 5/1/1 8/2/1 7/3/1 6/4/1
usemtl Material.001_NONE
f 1/5/2 2/6/2 3/7/2 4/8/2
f 1/9/3 5/1/3 6/4/3 2/10/3
f 2/11/4 6/4/4 7/3/4 3/12/4
f 3/13/5 7/3/5 8/2/5 4/14/5
f 5/1/6 1/5/6 4/8/6 8/2/6
